<svg width="160" height="50" viewBox="0 0 160 50" fill="none" xmlns="http://www.w3.org/2000/svg">
<path fill-rule="evenodd" clip-rule="evenodd" d="M5 50C2.23858 50 0 47.7614 0 45V24.7287C0 23.4026 0.526785 22.1309 1.46447 21.1932L21.1932 1.46447C22.1309 0.526784 23.4026 0 24.7287 0H154.036C156.798 0 159.036 2.23858 159.036 5V25.1899C159.036 26.516 158.509 27.7878 157.572 28.7255L137.762 48.5355C136.824 49.4732 135.552 50 134.226 50H5Z" fill="url(#paint0_linear)"/>
<path d="M47.26 18.04C48.7267 18.04 50.0133 18.3267 51.12 18.9C52.24 19.4733 53.1 20.2933 53.7 21.36C54.3133 22.4133 54.62 23.64 54.62 25.04C54.62 26.44 54.3133 27.6667 53.7 28.72C53.1 29.76 52.24 30.5667 51.12 31.14C50.0133 31.7133 48.7267 32 47.26 32H42.38V18.04H47.26ZM47.16 29.62C48.6267 29.62 49.76 29.22 50.56 28.42C51.36 27.62 51.76 26.4933 51.76 25.04C51.76 23.5867 51.36 22.4533 50.56 21.64C49.76 20.8133 48.6267 20.4 47.16 20.4H45.18V29.62H47.16ZM59.5159 20.3V23.8H64.2159V26.02H59.5159V29.72H64.8159V32H56.7159V18.02H64.8159V20.3H59.5159ZM76.8605 18.04V20.3H73.1405V32H70.3405V20.3H66.6205V18.04H76.8605ZM87.4634 29.34H81.9034L80.9834 32H78.0434L83.0634 18.02H86.3234L91.3434 32H88.3834L87.4634 29.34ZM86.7034 27.1L84.6834 21.26L82.6634 27.1H86.7034ZM96.0198 18.04V32H93.2198V18.04H96.0198ZM101.586 29.78H106.186V32H98.7863V18.04H101.586V29.78ZM112.786 32.14C111.813 32.14 110.933 31.9733 110.146 31.64C109.373 31.3067 108.759 30.8267 108.306 30.2C107.853 29.5733 107.619 28.8333 107.606 27.98H110.606C110.646 28.5533 110.846 29.0067 111.206 29.34C111.579 29.6733 112.086 29.84 112.726 29.84C113.379 29.84 113.893 29.6867 114.266 29.38C114.639 29.06 114.826 28.6467 114.826 28.14C114.826 27.7267 114.699 27.3867 114.446 27.12C114.193 26.8533 113.873 26.6467 113.486 26.5C113.113 26.34 112.593 26.1667 111.926 25.98C111.019 25.7133 110.279 25.4533 109.706 25.2C109.146 24.9333 108.659 24.54 108.246 24.02C107.846 23.4867 107.646 22.78 107.646 21.9C107.646 21.0733 107.853 20.3533 108.266 19.74C108.679 19.1267 109.259 18.66 110.006 18.34C110.753 18.0067 111.606 17.84 112.566 17.84C114.006 17.84 115.173 18.1933 116.066 18.9C116.973 19.5933 117.473 20.5667 117.566 21.82H114.486C114.459 21.34 114.253 20.9467 113.866 20.64C113.493 20.32 112.993 20.16 112.366 20.16C111.819 20.16 111.379 20.3 111.046 20.58C110.726 20.86 110.566 21.2667 110.566 21.8C110.566 22.1733 110.686 22.4867 110.926 22.74C111.179 22.98 111.486 23.18 111.846 23.34C112.219 23.4867 112.739 23.66 113.406 23.86C114.313 24.1267 115.053 24.3933 115.626 24.66C116.199 24.9267 116.693 25.3267 117.106 25.86C117.519 26.3933 117.726 27.0933 117.726 27.96C117.726 28.7067 117.533 29.4 117.146 30.04C116.759 30.68 116.193 31.1933 115.446 31.58C114.699 31.9533 113.813 32.14 112.786 32.14Z" fill="white"/>
<defs>
<linearGradient id="paint0_linear" x1="0" y1="25.3012" x2="185" y2="25.3012" gradientUnits="userSpaceOnUse">
<stop stop-color="#036491"/>
<stop offset="1" stop-color="#00A1EA"/>
</linearGradient>
</defs>
</svg>
