<svg width="37" height="42" viewBox="0 0 37 42" fill="none" xmlns="http://www.w3.org/2000/svg">
<path d="M12.3333 18.5H8.22222V22.6111H12.3333V18.5ZM20.5556 18.5H16.4444V22.6111H20.5556V18.5ZM28.7778 18.5H24.6667V22.6111H28.7778V18.5ZM32.8889 4.11111H30.8333V0H26.7222V4.11111H10.2778V0H6.16667V4.11111H4.11111C1.82944 4.11111 0.0205555 5.96111 0.0205555 8.22222L0 37C0 38.0903 0.433134 39.136 1.20412 39.907C1.9751 40.678 3.02078 41.1111 4.11111 41.1111H32.8889C35.15 41.1111 37 39.2611 37 37V8.22222C37 5.96111 35.15 4.11111 32.8889 4.11111ZM32.8889 37H4.11111V14.3889H32.8889V37Z" fill="white"/>
</svg>
