<svg width="102" height="102" viewBox="0 0 102 102" fill="none" xmlns="http://www.w3.org/2000/svg">
<circle r="3.36667" transform="matrix(-1 0 0 1 97.8838 4.34274)" fill="#002874" fill-opacity="0.54"/>
<circle r="3.36667" transform="matrix(-1 0 0 1 97.8838 27.9094)" fill="#002874" fill-opacity="0.54"/>
<circle r="3.36667" transform="matrix(-1 0 0 1 97.8838 51.476)" fill="#002874" fill-opacity="0.54"/>
<circle r="3.36667" transform="matrix(-1 0 0 1 97.8838 75.0427)" fill="#002874" fill-opacity="0.54"/>
<circle r="3.36667" transform="matrix(-1 0 0 1 97.8838 98.6093)" fill="#002874" fill-opacity="0.54"/>
<circle r="3.36667" transform="matrix(-1 0 0 1 74.3172 4.34274)" fill="#002874" fill-opacity="0.54"/>
<circle r="3.36667" transform="matrix(-1 0 0 1 74.3172 27.9094)" fill="#002874" fill-opacity="0.54"/>
<circle r="3.36667" transform="matrix(-1 0 0 1 74.3172 51.476)" fill="#002874" fill-opacity="0.54"/>
<circle r="3.36667" transform="matrix(-1 0 0 1 74.3172 75.0427)" fill="#002874" fill-opacity="0.54"/>
<circle r="3.36667" transform="matrix(-1 0 0 1 74.3172 98.6093)" fill="#002874" fill-opacity="0.54"/>
<circle r="3.36667" transform="matrix(-1 0 0 1 50.7505 4.34274)" fill="#002874" fill-opacity="0.54"/>
<circle r="3.36667" transform="matrix(-1 0 0 1 50.7505 27.9094)" fill="#002874" fill-opacity="0.54"/>
<circle r="3.36667" transform="matrix(-1 0 0 1 50.7505 51.476)" fill="#002874" fill-opacity="0.54"/>
<circle r="3.36667" transform="matrix(-1 0 0 1 50.7505 75.0427)" fill="#002874" fill-opacity="0.54"/>
<circle r="3.36667" transform="matrix(-1 0 0 1 50.7505 98.6093)" fill="#002874" fill-opacity="0.54"/>
<circle r="3.36667" transform="matrix(-1 0 0 1 27.1839 4.34274)" fill="#002874" fill-opacity="0.54"/>
<circle r="3.36667" transform="matrix(-1 0 0 1 27.1839 27.9094)" fill="#002874" fill-opacity="0.54"/>
<circle r="3.36667" transform="matrix(-1 0 0 1 27.1839 51.476)" fill="#002874" fill-opacity="0.54"/>
<circle r="3.36667" transform="matrix(-1 0 0 1 27.1839 75.0427)" fill="#002874" fill-opacity="0.54"/>
<circle r="3.36667" transform="matrix(-1 0 0 1 27.1839 98.6093)" fill="#002874" fill-opacity="0.54"/>
<circle r="3.36667" transform="matrix(-1 0 0 1 3.61722 4.34274)" fill="#002874" fill-opacity="0.54"/>
<circle r="3.36667" transform="matrix(-1 0 0 1 3.61722 27.9094)" fill="#002874" fill-opacity="0.54"/>
<circle r="3.36667" transform="matrix(-1 0 0 1 3.61722 51.476)" fill="#002874" fill-opacity="0.54"/>
<circle r="3.36667" transform="matrix(-1 0 0 1 3.61722 75.0427)" fill="#002874" fill-opacity="0.54"/>
<circle r="3.36667" transform="matrix(-1 0 0 1 3.61722 98.6093)" fill="#002874" fill-opacity="0.54"/>
</svg>
