<svg width="57" height="58" viewBox="0 0 57 58" fill="none" xmlns="http://www.w3.org/2000/svg">
<path d="M40.3742 4.97288C43.5201 4.98239 46.5345 6.25122 48.759 8.50227C50.9834 10.7533 52.2373 13.8037 52.2467 16.9871V41.013C52.2373 44.1964 50.9834 47.2468 48.759 49.4978C46.5345 51.7489 43.5201 53.0177 40.3742 53.0272H16.6319C13.486 53.0177 10.4717 51.7489 8.24718 49.4978C6.0227 47.2468 4.76884 44.1964 4.75945 41.013V16.9871C4.76884 13.8037 6.0227 10.7533 8.24718 8.50227C10.4717 6.25122 13.486 4.98239 16.6319 4.97288H40.3742ZM40.3742 0.167969H16.6319C7.49034 0.167969 0.0112305 7.73639 0.0112305 16.9871V41.013C0.0112305 50.2637 7.49034 57.8321 16.6319 57.8321H40.3742C49.5158 57.8321 56.9949 50.2637 56.9949 41.013V16.9871C56.9949 7.73639 49.5158 0.167969 40.3742 0.167969Z" fill="white"/>
<path d="M43.1651 17.6728C42.479 17.6728 41.8083 17.4669 41.2379 17.0812C40.6674 16.6954 40.2228 16.1472 39.9602 15.5057C39.6976 14.8643 39.6289 14.1584 39.7628 13.4775C39.8966 12.7965 40.227 12.171 40.7122 11.68C41.1973 11.1891 41.8155 10.8548 42.4884 10.7193C43.1613 10.5839 43.8588 10.6534 44.4927 10.9191C45.1266 11.1848 45.6683 11.6347 46.0495 12.212C46.4307 12.7893 46.6342 13.468 46.6342 14.1623C46.6351 14.6236 46.5461 15.0805 46.3721 15.5069C46.1981 15.9332 45.9426 16.3206 45.6203 16.6468C45.298 16.973 44.9152 17.2315 44.4938 17.4076C44.0725 17.5837 43.621 17.6738 43.1651 17.6728ZM28.1332 20.0123C29.9629 20.0123 31.7515 20.5613 33.2728 21.59C34.7941 22.6187 35.9799 24.0807 36.6801 25.7914C37.3803 27.502 37.5635 29.3843 37.2065 31.2003C36.8496 33.0163 35.9685 34.6843 34.6747 35.9936C33.3809 37.3028 31.7325 38.1945 29.938 38.5557C28.1434 38.9169 26.2833 38.7315 24.5929 38.023C22.9025 37.3144 21.4577 36.1145 20.4411 34.575C19.4246 33.0355 18.882 31.2255 18.882 29.3739C18.8847 26.8919 19.8602 24.5122 21.5945 22.7572C23.3289 21.0021 25.6804 20.0149 28.1332 20.0123ZM28.1332 15.3321C25.3887 15.3321 22.7059 16.1556 20.424 17.6985C18.1421 19.2415 16.3636 21.4345 15.3133 24.0003C14.2631 26.5661 13.9883 29.3895 14.5237 32.1133C15.0591 34.8372 16.3807 37.3392 18.3213 39.303C20.2619 41.2668 22.7344 42.6042 25.4261 43.146C28.1178 43.6878 30.9078 43.4097 33.4433 42.3469C35.9788 41.2841 38.146 39.4843 39.6707 37.1751C41.1954 34.866 42.0092 32.1511 42.0092 29.3739C42.0092 25.6498 40.5473 22.0782 37.945 19.4448C35.3428 16.8115 31.8133 15.3321 28.1332 15.3321Z" fill="white"/>
</svg>
