<svg width="25" height="40" viewBox="0 0 25 40" fill="none" xmlns="http://www.w3.org/2000/svg">
<path d="M12.5 0C5.595 0 0 5.57598 0 12.4828C0 24.4253 12.5 40 12.5 40C12.5 40 25 24.4228 25 12.4828C25 5.57849 19.405 0 12.5 0ZM12.5 19.3896C10.7098 19.3896 8.9929 18.678 7.72703 17.4114C6.46116 16.1447 5.75 14.4267 5.75 12.6354C5.75 10.8441 6.46116 9.1261 7.72703 7.85944C8.9929 6.59278 10.7098 5.88118 12.5 5.88118C14.2902 5.88118 16.0071 6.59278 17.273 7.85944C18.5388 9.1261 19.25 10.8441 19.25 12.6354C19.25 14.4267 18.5388 16.1447 17.273 17.4114C16.0071 18.678 14.2902 19.3896 12.5 19.3896Z" fill="white"/>
</svg>
