<svg width="327" height="720" viewBox="0 0 327 720" fill="none" xmlns="http://www.w3.org/2000/svg">
<path opacity="0.11" d="M0.882366 611.713C0.24857 609.332 0.981545 606.045 2.51968 604.371C3.67327 603.115 4.94868 603.127 5.77275 604.22L91.6696 510.236L168.094 535.128L189.023 512.23L272.144 539.304L343.829 460.88L339.252 443.533L283.978 504.007L238.413 489.166L238.328 488.823L212.58 391.206L197.12 386.171L161.576 425.059C161.908 427.342 161.183 430.158 159.81 431.675C158.271 433.349 156.522 432.779 155.903 430.403C155.269 428.021 156.002 424.734 157.54 423.06C158.929 421.548 160.474 421.876 161.232 423.701L196.775 384.813L213.472 390.251L213.557 390.595L239.306 488.212L283.634 502.65L325.401 456.966L306.412 450.781L287.26 471.731C287.593 474.014 286.868 476.83 285.494 478.348C283.956 480.022 282.206 479.452 281.587 477.075C280.954 474.694 281.687 471.407 283.225 469.733C284.614 468.22 286.158 468.548 286.916 470.374L306.067 449.423L326.293 456.011L338.919 442.196L332.8 418.996L299.738 408.228L271.56 439.043L248.71 431.601L248.624 431.257L224.322 339.128C222.908 340.246 221.436 339.591 220.864 337.44C220.23 335.059 220.963 331.772 222.501 330.098C224.039 328.424 225.789 328.993 226.408 331.37C226.98 333.521 226.421 336.391 225.184 338.163L249.576 430.62L271.189 437.659L298.49 407.804L275.7 400.381L275.615 400.037L260.744 343.676C259.33 344.794 257.858 344.14 257.286 341.989C256.652 339.607 257.385 336.32 258.924 334.646C260.462 332.972 262.211 333.542 262.83 335.919C263.402 338.069 262.843 340.939 261.606 342.712L276.562 399.416L332.414 417.608L328.119 401.317L345.408 382.408L338.987 358.093L312.17 349.358L312.085 349.014L295.131 284.73L269.852 276.497C269.54 277.606 269.039 278.618 268.378 279.332C266.84 281.006 265.09 280.436 264.472 278.06C263.838 275.678 264.571 272.391 266.109 270.717C267.647 269.043 269.397 269.613 270.015 271.99C270.29 273.009 270.287 274.183 270.111 275.336L296.008 283.771L296.093 284.114L313.047 348.398L338.628 356.73L311.028 252.108L260.697 235.714L224.167 275.685L214.271 320.067L214.166 320.173L156.641 383.125C156.974 385.408 156.249 388.224 154.875 389.741C153.337 391.415 151.587 390.845 150.968 388.469C150.335 386.087 151.068 382.8 152.606 381.126C153.995 379.614 155.539 379.942 156.297 381.767L213.284 319.413L222.663 277.352L116.973 392.99C117.305 395.273 116.58 398.089 115.206 399.606C113.668 401.28 111.918 400.71 111.3 398.334C110.666 395.952 111.399 392.665 112.937 390.991C114.326 389.479 115.871 389.807 116.628 391.632L260.344 234.319L311.913 251.115L311.998 251.459L346.274 381.427L363.114 363.004L304.59 141.1L244.5 121.528L244.414 121.184L224.518 45.7156C223.104 46.8336 221.632 46.1789 221.06 44.028C220.427 41.6465 221.16 38.3595 222.698 36.6854C224.236 35.0113 225.985 35.5812 226.604 37.9578C227.176 40.1087 226.617 42.9787 225.381 44.751L245.381 120.552L305.471 140.124L305.556 140.467L363.995 362.028L380.025 344.481L322.135 125.029L347.005 13.5002L325.427 -68.2869L268.384 -86.8665C268.084 -86.1748 267.72 -85.5568 267.287 -85.0663C265.749 -83.3923 263.999 -83.9621 263.381 -86.3387C262.747 -88.7202 263.48 -92.0072 265.018 -93.6813C266.556 -95.3554 268.306 -94.7855 268.924 -92.4089C269.272 -91.0677 269.186 -89.447 268.779 -87.9834L326.305 -69.2466L326.39 -68.9031L348.141 13.5546L323.272 125.083L372.14 310.339L379.221 278.582L362.549 215.354L371.804 173.85L371.909 173.744L415.393 126.163C415.061 123.88 415.786 121.064 417.159 119.547C418.697 117.873 420.447 118.442 421.066 120.819C421.699 123.2 420.967 126.487 419.428 128.162C418.04 129.674 416.495 129.346 415.737 127.521L372.79 174.504L363.674 215.387L380.346 278.615L372.747 312.695L380.884 343.533L423.681 296.711L418.691 277.808L396.172 270.473L383.501 222.459C382.087 223.577 380.615 222.922 380.043 220.771C379.409 218.39 380.142 215.103 381.68 213.429C383.219 211.755 384.968 212.325 385.587 214.701C386.159 216.852 385.6 219.722 384.363 221.494L397.034 269.509L418.316 276.441L404.806 225.224L409.415 204.553L409.52 204.447L428.137 184.077C427.805 181.794 428.53 178.978 429.904 177.46C431.442 175.786 433.192 176.356 433.81 178.733C434.444 181.114 433.711 184.401 432.173 186.075C430.784 187.588 429.24 187.26 428.482 185.434L410.402 205.208L405.935 225.24L424.517 295.72L432.756 286.704L443.529 327.558L455.852 314.083L461.351 289.423L455.889 268.717C454.505 269.775 453.056 269.092 452.491 266.979C451.858 264.597 452.591 261.31 454.129 259.636C455.667 257.962 457.416 258.532 458.035 260.909C458.603 263.076 458.033 265.995 456.763 267.774L462.477 289.456L457.357 312.416L488.772 278.041L458.489 163.249L474.187 92.8483L474.292 92.7421L504.232 59.9748C503.9 57.6916 504.625 54.8756 505.999 53.3584C507.537 51.6843 509.286 52.2542 509.905 54.6308C510.539 57.0123 509.806 60.2993 508.268 61.9734C506.879 63.4856 505.334 63.1579 504.577 61.3324L475.174 93.5029L459.618 163.265L482.973 251.806L490.175 219.509L480.411 182.474C478.997 183.592 477.525 182.938 476.953 180.787C476.319 178.405 477.052 175.118 478.59 173.444C480.128 171.77 481.878 172.34 482.497 174.717C483.069 176.867 482.509 179.737 481.273 181.51L491.315 219.547L483.596 254.166L489.637 277.06L527.152 236.008L562.545 77.2842L524.373 -67.4245C522.959 -66.3064 521.488 -66.9612 520.916 -69.1121C520.282 -71.4936 521.015 -74.7806 522.553 -76.4546C524.091 -78.1287 525.841 -77.5589 526.459 -75.1823C527.031 -73.0314 526.472 -70.1614 525.236 -68.3891L563.671 77.3174L528.656 234.34L543.548 218.054L569.749 100.557L569.853 100.45L613.632 52.5624C613.3 50.2791 614.025 47.4631 615.399 45.946C616.937 44.2719 618.687 44.8418 619.305 47.2184C619.939 49.5999 619.206 52.8868 617.668 54.5609C616.279 56.0732 614.735 55.7454 613.977 53.9199L570.747 101.232L544.546 218.73L544.442 218.836L443.843 328.905L448.42 346.253L554.193 230.537L577.024 128.15L577.128 128.044L670.555 25.8297L708.76 -145.502L698.629 -184.305L699.866 -183.902L710.017 -145.408L671.674 26.5449L671.569 26.6511L612.936 90.8025L637.4 98.7708L676.046 56.4904C675.714 54.2072 676.439 51.3912 677.812 49.874C679.351 48.2 681.1 48.7698 681.719 51.1464C682.353 53.5279 681.62 56.8149 680.082 58.489C678.693 60.0012 677.148 59.6735 676.39 57.848L637.744 100.128L612.194 91.8064L612.252 91.5447L578.124 128.876L555.293 231.264L555.188 231.37L448.878 347.683L454.077 367.39L660.343 141.711L686.617 150.269L686.358 151.43L660.703 143.074L454.437 368.753L460.865 393.106L567.261 276.698L580.669 281.066L599.541 260.427L630.385 270.474L666.974 230.453C666.642 228.169 667.367 225.353 668.741 223.836C669.297 223.228 669.885 222.911 670.442 222.882L668.185 233.005C667.84 232.735 667.555 232.344 667.334 231.815L630.744 271.836L599.9 261.79L581.906 281.469L631.287 297.553L635.636 314.037L654.765 293.114L654.247 295.436L635.995 315.399L643.475 343.743L642.957 346.065L630.432 298.484L567.642 278.033L461.247 394.441L467.095 416.605L542.379 334.232C542.046 331.949 542.771 329.133 544.145 327.616C545.683 325.941 547.433 326.511 548.052 328.888C548.685 331.269 547.952 334.556 546.414 336.23C545.026 337.743 543.481 337.415 542.723 335.59L467.421 417.974L473.068 439.372L563.139 340.818L570.363 308.423C569.894 308.06 569.502 307.423 569.262 306.538C568.628 304.157 569.361 300.87 570.899 299.196C572.438 297.522 574.187 298.092 574.806 300.468C575.44 302.85 574.707 306.137 573.169 307.811C572.594 308.43 571.99 308.742 571.434 308.772L564.14 341.478L564.036 341.584L473.431 440.718L475.712 449.354L471.434 454.03L480.267 487.551L501.443 494.448L519.269 474.943L519.209 474.923L527.468 437.883L527.573 437.777L558.278 404.189C557.946 401.906 558.671 399.09 560.045 397.573C561.583 395.899 563.332 396.468 563.951 398.845C564.585 401.226 563.852 404.514 562.314 406.188C560.925 407.7 559.38 407.372 558.623 405.547L528.47 438.543L520.706 473.359L573.116 416.003C572.727 413.684 573.44 410.776 574.855 409.22C576.393 407.546 578.143 408.116 578.762 410.492C579.396 412.874 578.663 416.161 577.124 417.835C575.777 419.308 574.266 419.044 573.483 417.333L508.108 488.866L518.288 492.182L557.188 449.633L576.54 455.936L608.208 421.294C607.876 419.011 608.601 416.195 609.975 414.677C611.513 413.003 613.263 413.573 613.881 415.95C614.515 418.331 613.782 421.618 612.244 423.292C610.855 424.804 609.31 424.477 608.553 422.651L576.884 457.294L557.593 451.01L518.693 493.559L507.275 489.84L501.821 495.799L479.408 488.499L470.575 454.978L456.389 470.494L474.58 539.461L510.161 551.05L540.313 518.054C539.925 515.735 540.638 512.827 542.053 511.271C543.591 509.597 545.34 510.167 545.959 512.543C546.593 514.925 545.86 518.212 544.322 519.886C542.974 521.359 541.464 521.095 540.68 519.384L511.386 551.432L540.134 560.795L563.283 535.481L598.185 546.849L597.926 548.01L563.643 536.844L541.386 561.203L591.355 577.479L591.096 578.64L473.707 540.405L455.515 471.438L439.593 488.862L463.366 579.012L560.801 610.748L572.236 654.079L574.151 654.703L573.892 655.864L571.358 655.039L559.924 611.707L462.489 579.972L438.716 489.821L426.908 502.727L458.992 624.386L542.113 651.46L559.86 718.721L559.342 721.043L541.236 652.419L458.115 625.346L426.031 503.687L406.902 524.609L460.292 727.02L501.649 740.491L519.957 809.952L518.72 809.549L500.784 741.542L459.427 728.072L429.388 614.218L412.279 690.947L436.489 782.765L435.252 782.362L411.123 690.904L428.751 611.853L406.021 525.656L383.786 549.987L403.33 624.061L380.722 725.45L392.009 768.278L390.773 767.875L388.302 758.493L386.519 766.49L385.448 766.141L387.68 756.133L379.578 725.428L402.186 624.039L396.713 603.312L387.101 646.419L386.996 646.525L370.667 664.396L350.578 754.485L350.679 754.833L349.442 754.431L369.148 666.058L350.766 686.172C351.098 688.455 350.373 691.271 348.999 692.788C347.461 694.462 345.711 693.892 345.093 691.516C344.459 689.134 345.192 685.847 346.73 684.173C348.119 682.661 349.663 682.989 350.421 684.814L386.133 645.753L396.125 600.945L382.943 550.94L371.045 563.957L367.906 552.059L361.339 581.511L373.253 626.683C374.667 625.565 376.139 626.22 376.711 628.371C377.344 630.752 376.611 634.039 375.073 635.713C373.535 637.387 371.785 636.817 371.167 634.441C370.595 632.29 371.154 629.42 372.39 627.647L360.214 581.478L367.299 549.704L360.627 524.412L350.615 535.359L345.375 558.858L329.755 575.943L326.316 591.364L337.101 632.238C338.537 631.022 340.061 631.659 340.641 633.848C341.275 636.229 340.542 639.516 339.004 641.19C337.466 642.864 335.716 642.294 335.097 639.918C334.548 637.809 335.059 635.011 336.235 633.219L325.191 591.33L328.768 575.288L344.388 558.204L349.11 537.027L317.098 572.048L311.997 594.926L326.748 650.88L306.761 740.512L305.69 740.163L325.608 650.842L310.857 594.888L316.097 571.389L316.201 571.282L360.283 523.054L355.551 505.095L305.736 559.594L295.365 606.103L307.232 651.119L288.613 734.618L287.542 734.269L306.088 651.097L294.843 608.441L268.191 727.966L267.12 727.617L304.73 558.951L304.835 558.845L355.184 503.765L349.804 483.349L280.344 559.34L244.465 720.239L243.395 719.89L269.54 602.638L180.952 699.552L179.715 699.149L270.058 600.316L279.083 559.842L213.237 631.888L203.011 628.557L171.507 663.042C171.839 665.326 171.114 668.142 169.74 669.659C168.202 671.333 166.453 670.763 165.834 668.386C165.2 666.005 165.933 662.718 167.471 661.044C168.86 659.532 170.405 659.859 171.163 661.685L188.324 642.91L160.285 633.778L118.603 679.226L117.366 678.824L159.842 632.353L189.118 641.888L202.599 627.142L212.825 630.473L279.223 557.835L279.625 558.282L349.406 481.939L344.207 462.231L272.522 540.655L189.401 513.581L56.4768 658.991L55.24 658.588L167.217 536.088L92.0291 511.598L6.32636 605.365C6.35337 605.461 6.39912 605.546 6.42613 605.643C7.05992 608.024 6.32695 611.311 4.78882 612.986C3.25069 614.66 1.50108 614.09 0.882366 611.713ZM371.533 561.625L474.502 448.978L432.325 289.072L329.356 401.72L371.533 561.625Z" fill="white"/>
</svg>
