<svg width="16" height="16" viewBox="0 0 16 16" fill="none" xmlns="http://www.w3.org/2000/svg">
<path d="M2.85333 1.02669L8 6.17335L13.12 1.05335C13.2331 0.932977 13.3693 0.83668 13.5206 0.770237C13.6718 0.703793 13.8348 0.668573 14 0.666687C14.3536 0.666687 14.6928 0.807163 14.9428 1.05721C15.1929 1.30726 15.3333 1.6464 15.3333 2.00002C15.3364 2.16349 15.3061 2.32587 15.2442 2.4772C15.1823 2.62852 15.0901 2.7656 14.9733 2.88002L9.78667 8.00002L14.9733 13.1867C15.1931 13.4017 15.3219 13.6928 15.3333 14C15.3333 14.3536 15.1929 14.6928 14.9428 14.9428C14.6928 15.1929 14.3536 15.3334 14 15.3334C13.8301 15.3404 13.6605 15.312 13.5022 15.2501C13.3438 15.1881 13.2 15.0939 13.08 14.9734L8 9.82669L2.86667 14.96C2.75401 15.0764 2.61942 15.1693 2.47067 15.2334C2.32192 15.2974 2.16195 15.3314 2 15.3334C1.64638 15.3334 1.30724 15.1929 1.05719 14.9428C0.807143 14.6928 0.666667 14.3536 0.666667 14C0.663559 13.8366 0.693888 13.6742 0.755794 13.5228C0.8177 13.3715 0.909877 13.2344 1.02667 13.12L6.21333 8.00002L1.02667 2.81335C0.806914 2.59837 0.678054 2.30724 0.666667 2.00002C0.666667 1.6464 0.807143 1.30726 1.05719 1.05721C1.30724 0.807163 1.64638 0.666687 2 0.666687C2.32 0.670687 2.62667 0.80002 2.85333 1.02669Z" fill="white"/>
</svg>
