<svg id="Layer_1" data-name="Layer 1" xmlns="http://www.w3.org/2000/svg" viewBox="0 0 1080 1080"><defs><style>.cls-1,.cls-4{fill:#020230;}.cls-1{stroke:#231f20;stroke-miterlimit:10;}.cls-2{fill:#5ff2cb;}.cls-3{fill:#2cdd5a;}</style></defs><title>YE Stack</title><rect class="cls-1" width="1080" height="1080"/><rect class="cls-2" x="397.18" y="601.03" width="303.01" height="65.32"/><polygon class="cls-3" points="664.41 466.99 627.72 471.58 638.22 482.88 621.33 498.93 608.79 486.82 573.42 513.55 582.66 525.79 607.57 506.96 621.25 520.16 648.66 494.12 657.13 503.24 664.41 466.99"/><path class="cls-2" d="M461.16,528.17v62.44H428.3V528.67l-69.52-115h35.14l51.82,86.2,52.33-86.2h32.36Z"/><path class="cls-2" d="M582.25,514.26v48.79h99.86v27.56H549.39v-177H678.57V441.2H582.25v73.06Z"/><path class="cls-4" d="M435.16,625.41v.5h-1v-.5c0-4.35-4.5-7.75-10-7.75s-9.95,3.4-9.95,7.75c0,7.7,22,7.7,21.95,16.5,0,4.65-5.35,8.75-12,8.75s-12-4-12-8.75v-.5h1v.5c0,4.3,5,7.75,11,7.75s11-3.5,11-7.75c0-7.85-21.9-7.75-21.95-16.5,0-4.75,4.8-8.75,10.95-8.75S435.16,620.66,435.16,625.41Z"/><path class="cls-4" d="M424.21,651.66c-7.17,0-13-4.37-13-9.75v-.5a1,1,0,0,1,1-1h1a1,1,0,0,1,1,1v.5c0,3.66,4.58,6.75,10,6.75s10-3.15,10-6.75c0-3.13-5-5-9.87-6.81-5.92-2.21-12-4.5-12.08-9.68,0-5.39,5.36-9.76,11.95-9.76s12,4.37,12,9.75v.5a1,1,0,0,1-1,1h-1a1,1,0,0,1-1-1v-.5c0-3.72-4-6.75-9-6.75s-8.95,3-8.95,6.75c0,3,5,4.89,9.79,6.69,6,2.25,12.19,4.57,12.16,9.82S431.26,651.66,424.21,651.66Z"/><path class="cls-4" d="M484.76,616.66h12.46v1H484.76v33h-1v-33H471.21v-1h13.55Z"/><path class="cls-4" d="M484.76,651.66h-1a1,1,0,0,1-1-1v-32H471.21a1,1,0,0,1-1-1v-1a1,1,0,0,1,1-1h26a1,1,0,0,1,1,1v1a1,1,0,0,1-1,1H485.76v32A1,1,0,0,1,484.76,651.66Z"/><path class="cls-4" d="M532.17,650.36l-.1.3H531l.3-.7,14.5-33a.52.52,0,0,1,.9,0l14.5,33,.3.7h-1.1l-.1-.3-14-32Z"/><path class="cls-4" d="M561.47,651.66h-1.1a1,1,0,0,1-1-.68l-.1-.3-13.1-29.79L533,651a1,1,0,0,1-.95.68H531a1,1,0,0,1-.84-.45,1,1,0,0,1-.08-.94l.3-.7,14.5-33a1.47,1.47,0,0,1,1.37-.86,1.49,1.49,0,0,1,1.37.86l14.8,33.71a1,1,0,0,1-.09.94A1,1,0,0,1,561.47,651.66Zm-15.72-34.3h0Zm.93,0h0Z"/><path class="cls-4" d="M623.27,643l.15-.25h1.15l-.4.75a15.73,15.73,0,0,1-12.9,7.2c-8.3,0-15-7.55-15-17s6.75-17,15-17c5.55,0,10.9,3.5,12.8,7.25l.35.75h-1.1l-.15-.25c-1.8-3.55-6.75-6.75-11.9-6.75-7.8,0-14,7.15-14,16s6.25,16,14,16C616.47,649.66,621.37,646.41,623.27,643Z"/><path class="cls-4" d="M611.27,651.66c-8.85,0-16-8.07-16-18s7.2-18,16-18c6.33,0,11.78,4,13.69,7.8l.37.78a1,1,0,0,1-.07,1,1,1,0,0,1-.84.46h-1.1a1,1,0,0,1-.86-.49l-.15-.25c-1.58-3.11-6.12-6.26-11-6.26-7.2,0-13,6.73-13,15s5.85,15,13,15a13.39,13.39,0,0,0,11.12-6.18l0,0,.15-.25a1,1,0,0,1,.86-.49h1.15a1,1,0,0,1,.86.49,1,1,0,0,1,0,1l-.4.75A16.68,16.68,0,0,1,611.27,651.66Z"/><path class="cls-4" d="M669.28,634.16h-5.06v16.5h-1v-34h1v16.5h5.06l17.09-16.35.15-.15H688l-.9.85-16.9,16.15,16.9,16.15.9.85h-1.45l-.15-.15Z"/><path class="cls-4" d="M688,651.66h-1.45a1,1,0,0,1-.7-.29l-.15-.15-16.79-16.06h-3.66v15.5a1,1,0,0,1-1,1h-1a1,1,0,0,1-1-1v-34a1,1,0,0,1,1-1h1a1,1,0,0,1,1,1v15.5h3.66L685.81,616a1,1,0,0,1,.71-.29H688a1,1,0,0,1,.69,1.73l-.9.85-16.14,15.42,17,16.27a1,1,0,0,1-.69,1.73Z"/></svg>