<svg width="57" height="58" viewBox="0 0 57 58" fill="none" xmlns="http://www.w3.org/2000/svg">
<path d="M40.363 4.80492C43.5089 4.81442 46.5233 6.08326 48.7477 8.3343C50.9722 10.5853 52.2261 13.6357 52.2355 16.8191V40.845C52.2261 44.0284 50.9722 47.0788 48.7477 49.3298C46.5233 51.5809 43.5089 52.8497 40.363 52.8592H16.6207C13.4748 52.8497 10.4604 51.5809 8.23595 49.3298C6.01147 47.0788 4.75761 44.0284 4.74822 40.845V16.8191C4.75761 13.6357 6.01147 10.5853 8.23595 8.3343C10.4604 6.08326 13.4748 4.81442 16.6207 4.80492H40.363ZM40.363 0H16.6207C7.47911 0 0 7.56842 0 16.8191V40.845C0 50.0957 7.47911 57.6641 16.6207 57.6641H40.363C49.5046 57.6641 56.9837 50.0957 56.9837 40.845V16.8191C56.9837 7.56842 49.5046 0 40.363 0Z" fill="url(#paint0_linear)"/>
<path d="M43.1539 17.5048C42.4678 17.5048 41.7971 17.2989 41.2266 16.9132C40.6562 16.5275 40.2115 15.9792 39.949 15.3377C39.6864 14.6963 39.6177 13.9905 39.7516 13.3095C39.8854 12.6285 40.2158 12.003 40.701 11.5121C41.1861 11.0211 41.8042 10.6868 42.4771 10.5513C43.1501 10.4159 43.8476 10.4854 44.4815 10.7511C45.1153 11.0168 45.6571 11.4668 46.0383 12.044C46.4195 12.6213 46.6229 13.3 46.6229 13.9944C46.6239 14.4556 46.5349 14.9126 46.3609 15.3389C46.1869 15.7653 45.9314 16.1527 45.6091 16.4788C45.2867 16.805 44.9039 17.0636 44.4826 17.2396C44.0613 17.4157 43.6098 17.5058 43.1539 17.5048ZM28.1219 19.8443C29.9516 19.8443 31.7402 20.3933 33.2616 21.422C34.7829 22.4507 35.9687 23.9128 36.6688 25.6234C37.369 27.334 37.5522 29.2163 37.1953 31.0323C36.8383 32.8483 35.9573 34.5164 34.6635 35.8256C33.3697 37.1349 31.7213 38.0265 29.9267 38.3877C28.1322 38.7489 26.2721 38.5635 24.5817 37.855C22.8913 37.1464 21.4464 35.9465 20.4299 34.407C19.4134 32.8675 18.8708 31.0575 18.8708 29.2059C18.8734 26.7239 19.8489 24.3443 21.5833 22.5892C23.3176 20.8341 25.6692 19.8469 28.1219 19.8443ZM28.1219 15.1641C25.3775 15.1641 22.6947 15.9876 20.4128 17.5306C18.1309 19.0735 16.3524 21.2665 15.3021 23.8324C14.2519 26.3982 13.9771 29.2215 14.5125 31.9454C15.0479 34.6692 16.3695 37.1712 18.3101 39.135C20.2507 41.0988 22.7231 42.4362 25.4148 42.978C28.1065 43.5198 30.8965 43.2417 33.4321 42.1789C35.9676 41.1161 38.1347 39.3164 39.6595 37.0072C41.1842 34.698 41.998 31.9832 41.998 29.2059C41.998 25.4818 40.5361 21.9102 37.9338 19.2769C35.3315 16.6435 31.8021 15.1641 28.1219 15.1641Z" fill="url(#paint1_linear)"/>
<defs>
<linearGradient id="paint0_linear" x1="28.4918" y1="0" x2="28.4918" y2="57.6641" gradientUnits="userSpaceOnUse">
<stop stop-color="#002874"/>
<stop offset="0.9999" stop-color="#CC0045"/>
<stop offset="1" stop-color="#002874"/>
</linearGradient>
<linearGradient id="paint1_linear" x1="30.4344" y1="10.4839" x2="30.4344" y2="43.2478" gradientUnits="userSpaceOnUse">
<stop stop-color="#002874"/>
<stop offset="0.9999" stop-color="#CC0045"/>
<stop offset="1" stop-color="#002874"/>
</linearGradient>
</defs>
</svg>
