<svg width="58" height="58" viewBox="0 0 58 58" fill="none" xmlns="http://www.w3.org/2000/svg">
<path d="M53.2108 0H5.65371C3.05511 0 0.784668 1.8921 0.784668 4.49085V52.7228C0.784668 55.3357 3.05511 57.6641 5.65371 57.6641H53.1969C55.8095 57.6641 57.7683 55.3202 57.7683 52.7228V4.49085C57.7835 1.8921 55.8095 0 53.2108 0ZM18.4483 48.0659H10.2849V22.3809H18.4483V48.0659ZM14.649 18.4757H14.5905C11.9779 18.4757 10.2862 16.5076 10.2862 14.044C10.2862 11.5354 12.0224 9.61369 14.6935 9.61369C17.3646 9.61369 18.9991 11.5212 19.0576 14.044C19.0563 16.5076 17.3646 18.4757 14.649 18.4757ZM48.2833 48.0659H40.1199V34.0218C40.1199 30.6572 38.9319 28.3584 35.9784 28.3584C33.722 28.3584 32.3864 29.903 31.7924 31.4076C31.5698 31.9482 31.51 32.6845 31.51 33.4362V48.0659H23.3466V22.3809H31.51V25.9553C32.698 24.2434 34.5538 21.7798 38.8721 21.7798C44.2308 21.7798 48.2846 25.3542 48.2846 33.0603L48.2833 48.0659Z" fill="url(#paint0_linear)"/>
<defs>
<linearGradient id="paint0_linear" x1="29.2765" y1="0" x2="29.2765" y2="57.6641" gradientUnits="userSpaceOnUse">
<stop stop-color="#002874"/>
<stop offset="0.9999" stop-color="#CC0045"/>
<stop offset="1" stop-color="#002874"/>
</linearGradient>
</defs>
</svg>
