<svg width="55" height="44" viewBox="0 0 55 44" fill="none" xmlns="http://www.w3.org/2000/svg">
<path d="M54.4166 5.65384C52.4126 6.52457 50.2924 7.09822 48.1228 7.35667C50.4029 6.02154 52.1175 3.90044 52.9452 1.39119C50.7895 2.65173 48.435 3.53617 45.9825 4.00666C44.9498 2.92433 43.7078 2.06332 42.3319 1.47594C40.9561 0.888565 39.4752 0.587098 37.9792 0.589863C31.9225 0.589863 27.021 5.42012 27.021 11.3745C27.0167 12.2027 27.1116 13.0285 27.3037 13.8341C22.9606 13.6305 18.7078 12.5226 14.8174 10.5812C10.9269 8.63984 7.48461 5.90777 4.71057 2.5598C3.73736 4.20044 3.22268 6.07236 3.22031 7.97993C3.22031 11.7195 5.17133 15.025 8.11734 16.9615C6.37191 16.9201 4.66225 16.4581 3.1335 15.6148V15.7484C3.1335 20.9793 6.91757 25.331 11.9259 26.3215C10.9841 26.5726 10.0136 26.6998 9.03887 26.6999C8.34726 26.7012 7.65721 26.6341 6.97878 26.4996C8.3711 30.7845 12.4234 33.9008 17.2236 33.9899C13.3231 36.9959 8.53428 38.6206 3.60985 38.6086C2.73575 38.6073 1.86246 38.5553 0.994385 38.4528C6.00403 41.6517 11.8273 43.3438 17.7712 43.3276C37.9559 43.3276 48.9831 26.8892 48.9831 12.6321C48.9831 12.1647 48.9708 11.6972 48.9486 11.2409C51.0889 9.71844 52.9406 7.82646 54.4166 5.65384Z" fill="url(#paint0_linear)"/>
<defs>
<linearGradient id="paint0_linear" x1="27.7055" y1="0.589844" x2="27.7055" y2="43.3277" gradientUnits="userSpaceOnUse">
<stop stop-color="#002874"/>
<stop offset="0.9999" stop-color="#CC0045"/>
<stop offset="1" stop-color="#002874"/>
</linearGradient>
</defs>
</svg>
